<svg xmlns="http://www.w3.org/2000/svg" viewBox="0 0 492.44 124.59"><path d="M209.39 62.18a36.09 36.09 0 01-.84 7.81 32.59 32.59 0 01-2.42 7 29.2 29.2 0 01-3.86 6 27.65 27.65 0 01-5.18 4.78l15.45 16.83h-9.34a11.14 11.14 0 01-3.64-.54 7.08 7.08 0 01-3-2l-8.92-9.85a35.49 35.49 0 01-4.41.89 37.26 37.26 0 01-4.69.29A32.93 32.93 0 01166 91a28.4 28.4 0 01-9.77-6.5 29.24 29.24 0 01-6.29-9.87 33.73 33.73 0 01-2.22-12.4 33.69 33.69 0 012.22-12.4 29.24 29.24 0 016.29-9.87A28.57 28.57 0 01166 33.4a33.12 33.12 0 0112.61-2.33 32.6 32.6 0 0112.59 2.35 28.86 28.86 0 019.72 6.5 29.21 29.21 0 016.27 9.86 33.7 33.7 0 012.2 12.4zm-11.62 0a28.46 28.46 0 00-1.33-9 18.92 18.92 0 00-3.82-6.76 16.27 16.27 0 00-6-4.25 22.55 22.55 0 00-16.07 0 16.76 16.76 0 00-6.07 4.25 19 19 0 00-3.86 6.76 28.17 28.17 0 00-1.34 9 28.06 28.06 0 001.34 9 18.82 18.82 0 003.86 6.74 16.71 16.71 0 006.07 4.23 22.69 22.69 0 0016.07 0 16.23 16.23 0 006-4.23 18.74 18.74 0 003.82-6.74 28.35 28.35 0 001.33-9zm45.05 21.3a14.69 14.69 0 005.86-1.1 12.21 12.21 0 004.39-3.07 13.44 13.44 0 002.73-4.8 19.76 19.76 0 001-6.31V31.74h11.31V68.2a28.05 28.05 0 01-1.74 10 22.46 22.46 0 01-13 13.17 30.43 30.43 0 01-21.06 0 22.32 22.32 0 01-12.94-13.17 28.06 28.06 0 01-1.75-10V31.74h11.32v36.42a20.1 20.1 0 001 6.31 13.62 13.62 0 002.73 4.82 11.73 11.73 0 004.33 3.09 14.7 14.7 0 005.82 1.1zM338 62.18a33.54 33.54 0 01-2.25 12.4 29 29 0 01-6.27 9.87 28.29 28.29 0 01-9.72 6.5 35.09 35.09 0 01-25.2 0 28.46 28.46 0 01-9.76-6.5 29.24 29.24 0 01-6.29-9.87 33.53 33.53 0 01-2.23-12.4 33.49 33.49 0 012.23-12.4 29.24 29.24 0 016.29-9.87 28.62 28.62 0 019.76-6.51 33.12 33.12 0 0112.61-2.33 32.57 32.57 0 0112.59 2.35 28.37 28.37 0 0116 16.36 33.5 33.5 0 012.24 12.4zm-11.62 0a28.75 28.75 0 00-1.33-9 19.07 19.07 0 00-3.82-6.76 16.36 16.36 0 00-6-4.25 22.55 22.55 0 00-16.07 0 16.79 16.79 0 00-6.08 4.25 19 19 0 00-3.85 6.76 28.16 28.16 0 00-1.35 9 28.06 28.06 0 001.35 9 18.8 18.8 0 003.85 6.74 16.74 16.74 0 006.08 4.23 22.69 22.69 0 0016.07 0 16.31 16.31 0 006-4.23 18.89 18.89 0 003.82-6.74 28.64 28.64 0 001.34-9zm60.15-30.44v9.31h-18.32v51.56h-11.32V41.05h-18.4v-9.31zm45.59 0v9h-27v16.89h21.28v8.72h-21.27v17.21h27v9h-38.4V31.74zm24.41 29.55l-19.4-29.55h11.28a3.53 3.53 0 011.7.31 2.71 2.71 0 01.94 1l13.87 22.36c.13-.36.29-.72.45-1.07s.37-.71.6-1.07l12.66-20a2.77 2.77 0 012.37-1.53h10.85l-19.57 29.09 20.16 31.78h-11.32a2.66 2.66 0 01-1.82-.61 5.5 5.5 0 01-1.17-1.34L464 67.35a8.16 8.16 0 01-.37 1c-.15.3-.28.57-.42.82l-13.49 21.51a7.39 7.39 0 01-1.13 1.32 2.46 2.46 0 01-1.69.61h-10.62zM107.9 93.44V31.15L82.47 16.46v10.51l16.33 9.44v51.77l-7.22 4.19V50.36h-9.11v47.26l-7.38 4.25V38.58h-9.12v68.56l-7.42 4.29V13.17l16.54 9.55V12.2L53.95 0 32.93 12.14v10.52l16.51-9.54v98.35l-7.4-4.27V38.58h-9.11v63.35l-7.38-4.25V50.36h-9.12v42.07l-7.32-4.25V36.41l.5-.3 15.94-9.2V16.4L0 31.15v62.29l53.95 31.15 53.95-31.15z" fill="#fff" data-name="Слой 2"/></svg>